<svg data-v-0dd9719b="" version="1.0" xmlns="http://www.w3.org/2000/svg" xmlns:xlink="http://www.w3.org/1999/xlink" width="100%" height="100%" viewBox="0 0 340.000000 250.000000" preserveAspectRatio="xMidYMid meet" color-interpolation-filters="sRGB" style="margin: auto;"> <rect data-v-0dd9719b="" x="0" y="0" width="100%" height="100%" fill="#fff" fill-opacity="1" class="background"></rect> <rect data-v-0dd9719b="" x="0" y="0" width="100%" height="100%" fill="url(#watermark)" fill-opacity="1" class="watermarklayer"></rect> <g data-v-0dd9719b="" fill="#fdc142" class="icon-text-wrapper icon-svg-group iconsvg" transform="translate(49.2550048828125,97.2337474822998)"><g class="iconsvg-imagesvg" transform="translate(0,0.043914794921875)"><g><rect fill="#fdc142" fill-opacity="0" stroke-width="2" x="0" y="0" width="60" height="55.44466622310934" class="image-rect"></rect> <svg x="0" y="0" width="60" height="55.44466622310934" filtersec="colorsb6731512530" class="image-svg-svg primary" style="overflow: visible;"><svg xmlns="http://www.w3.org/2000/svg" viewBox="-0.0000818669141153805 -0.0025272369384765625 169.2200469970703 156.37289428710938"><title>资源 99</title><g><g><path d="M0 54.76C-.06 19.81 32.87-6.36 67 1.56c1.89.44 4.37.66 5.1 2.48.9 2.29-1.87 3.07-3.1 4.39-2.72 2.92-5.25 6.09-5.84 10-.85 5.56-4 6.45-9 6.41-12.64-.11-21.72 6-27.12 17.29a29.42 29.42 0 0 0 5.34 33.19c4 4.28 8.38 8.23 12.31 12.59 5.76 6.38 5.86 12.88.62 18-4.94 4.82-12.27 4.36-18-1.48C21 98 13.91 92.24 8.92 84.49A57.17 57.17 0 0 1 0 54.76z" fill="#fdc142"></path><path d="M84.57 156.34a11.93 11.93 0 0 1-9.13-3.87c-9.89-9.72-19.69-19.47-29.54-29.28-2.65-2.63-2.24-4.44 1.22-5.88A18.5 18.5 0 0 0 57.44 107c1.43-3.44 2.9-3.41 5.31-.94 5.46 5.61 11 11.1 16.58 16.62 5.09 5.06 5.16 5.11 10.11.18q21.75-21.63 43.43-43.33a32.29 32.29 0 0 1 5.69-4.77 11.32 11.32 0 0 1 14.62 1.82 11.76 11.76 0 0 1 .95 15.19 27 27 0 0 1-3.13 3.67q-28.08 28.13-56.19 56.22c-2.88 2.89-6.02 4.99-10.24 4.68z" fill="#29e2d7"></path><path d="M169.2 55.46a44.58 44.58 0 0 1-1.77 13.84c-1.09 3.66-2.3 5.27-5.39 1.4A20 20 0 0 0 149 63.11c-3.26-.48-4.23-2-4.09-5.42.79-20.33-14.4-34.69-34.36-32.69a28.18 28.18 0 0 0-15.8 7.12c-2.73 2.35-5.62 4.39-9.4 4.62a12.27 12.27 0 0 1-11.91-7.42c-2-4.77-.92-10 3.44-14.09C88.81 4.05 103.06-1.18 119.33.22 148 2.69 169.15 26 169.2 55.46z" fill="#f42c51"></path></g></g></svg></svg> <!----></g></g> <g transform="translate(67,0)"><g data-gra="path-name" fill-rule="" class="tp-name iconsvg-namesvg" transform="translate(0,0)"><g transform="scale(1)"><g><path d="M14.57-31.39L12.23-27.83Q8.93-30.43 4.12-33.12L4.12-33.12 6.16-35.98Q10.88-33.68 14.57-31.39L14.57-31.39ZM12.57-19.55L10.27-16.04Q7.07-18.47 1.91-21.33L1.91-21.33 3.95-24.19Q10.36-21.11 12.57-19.55L12.57-19.55ZM7.02 3.38L7.02 3.38 3.03 0.04Q6.59-5.2 11.1-14.18L11.1-14.18 14.74-10.66Q11.58-4.16 7.02 3.38ZM15.09 3.77L15.09 3.77Q14.05 2.08 12.4 0.43L12.4 0.43Q23.32-6.16 24.02-24.97L24.02-24.97 19.64-24.97 19.64-19.08 14.22-19.08 14.22-28.22 24.15-28.22Q24.23-32.43 24.23-36.07L24.23-36.07 29.78-36.07Q29.78-32.51 29.65-28.22L29.65-28.22 41.75-28.22 41.75-19.08 36.11-19.08 36.11-24.97 29.48-24.97Q29.35-22.24 28.96-19.25L28.96-19.25 32.12-19.25 32.12-2.6Q32.12-1.13 32.32-0.89 32.51-0.65 32.77-0.65L32.77-0.65 36.72-0.69Q36.72-0.78 36.94-1.13 37.15-1.47 37.33-3.08 37.5-4.68 37.63-8.5L37.63-8.5Q39.84-6.59 40.73-6.2 41.62-5.81 42.66-5.55L42.66-5.55Q42.44-1.21 41.45 0.65 40.45 2.51 37.11 2.51L37.11 2.51 32.21 2.51Q28.7 2.51 27.66 1.32 26.62 0.13 26.62-2.6L26.62-2.6Q26.62-6.98 26.71-7.54L26.71-7.54Q26.71-7.8 26.58-7.8L26.58-7.8Q26.14-7.8 23.84-4.05 21.55-0.3 15.09 3.77ZM53.54-31.26L53.54 3.03 48.25 3.03 48.25-34.34 59.78-34.34 60.87-34.64 63.99-32.82Q61.86-27.88 58.83-21.98L58.83-21.98Q61.91-18.99 62.8-16.91 63.68-14.83 63.68-13.14L63.68-13.14Q63.68-9.49 61.6-8.06L61.6-8.06Q59.87-6.89 56.32-6.89L56.32-6.89 53.84-6.94Q53.8-7.59 53.5-8.74 53.19-9.88 53.11-10.06L53.11-10.06Q54.71-9.88 55.71-9.88L55.71-9.88Q56.92-9.88 57.31-10.14L57.31-10.14Q58.35-10.71 58.35-13.4L58.35-13.4Q58.35-17.82 53.93-21.85L53.93-21.85Q55.79-25.84 57.79-31.26L57.79-31.26 53.54-31.26ZM69.88-3.64L79.94-3.64 79.94-15.82 69.88-15.82 69.88-3.64ZM69.88-19.03L79.94-19.03 79.94-30.3 69.88-30.3 69.88-19.03ZM69.88-0.39L69.88 2.77 64.42 2.77 64.42-33.55 85.58-33.55 85.58 2.43 79.94 2.43 79.94-0.39 69.88-0.39ZM132.1-2.04L132.1 1.34 91.73 1.34 91.73-2.04 97.37-2.04 97.37-21.81 103.09-21.81 103.09-2.04 110.16-2.04 110.16-29.7 93.29-29.7 93.29-33.12 130.75-33.12 130.75-29.7 115.97-29.7 115.97-18.55 128.89-18.55 128.89-15.17 115.97-15.17 115.97-2.04 132.1-2.04ZM160.92-11.36L170.16-11.36Q166.65-13.18 165.48-14L165.48-14Q164.44-13.22 160.92-11.36L160.92-11.36ZM158.97-20.03L160.97-20.03Q161.71-21.33 162.57-23.32L162.57-23.32 158.97-23.32 158.97-20.03ZM142.46-11.4L151.65-11.4Q148.44-13.48 147.01-14.22L147.01-14.22Q145.88-13.27 142.46-11.4L142.46-11.4ZM149.44-29.52L163.92-29.52Q159.06-31.3 156.42-32.69L156.42-32.69Q154.29-31.47 149.44-29.52L149.44-29.52ZM136.73 2.9L136.73 2.9 136.34 0.52Q140.25 0.22 144.23-0.17L144.23-0.17 144.23-5.25 137.25-5.25 137.25-7.2 144.23-7.2 144.23-9.62 139.94-9.62 139.94-10.23 137.86-9.45Q137.17-10.71 136.65-11.4L136.65-11.4Q136.3-11.84 136.3-11.88L136.3-11.88 136.39-11.79Q141.76-13.4 146.49-17.73L146.49-17.73 139.29-17.73 139.29-20.03 146.97-20.03Q146.14-21.81 146.05-21.94L146.05-21.94 150.13-22.93Q151.39-20.98 151.69-20.03L151.69-20.03 153.6-20.03 153.6-23.32 142.07-23.32 142.07-25.32 153.6-25.32 153.6-27.66 147.23-27.66 147.23-28.74Q144.36-27.75 139.08-26.53L139.08-26.53Q138.47-27.7 137.9-28.57L137.9-28.57Q137.47-29.22 137.47-29.26L137.47-29.26Q150.04-31.65 156.85-36.81L156.85-36.81 159.49-35.33 161.45-36.5Q161.45-36.29 159.19-34.25L159.19-34.25Q166.3-31.26 175.06-29.83L175.06-29.83 175.1-29.87Q175.1-29.83 174.56-29.05 174.02-28.27 173.45-26.97L173.45-26.97Q168.68-27.96 165.56-28.96L165.56-28.96 165.56-27.66 158.97-27.66 158.97-25.32 170.46-25.32 170.46-23.32 161.18-23.32 166.82-22.07 166.95-22.24Q166.21-21.11 165.43-20.03L165.43-20.03 173.76-20.03 173.76-17.73 165-17.73 168.38-16.39 168.42-16.47Q168.34-16.47 167.47-15.61L167.47-15.61Q172.11-12.96 175.97-12.05L175.97-12.05 176.1-12.14Q176.1-12.1 175.64-11.51 175.19-10.92 174.58-9.75L174.58-9.75 171.42-10.88 172.15-10.66 172.15-9.58 167.6-9.58 167.6-7.11 175.58-7.11 175.58-5.16 167.6-5.16 167.6-0.26 167.73-0.26Q168.9-2.25 169.68-4.6L169.68-4.6 172.37-3.95Q175.14-8.8 175.49-8.8L175.49-8.8Q175.53-8.8 175.53-8.67L175.53-8.67Q175.53-8.06 173.71-3.86L173.71-3.86Q172.98-2.34 171.72-0.26L171.72-0.26 176.4-0.26 176.4 2.08 154.9 2.08 154.9-0.26 158.06-0.26Q157.11-3.29 156.76-3.64L156.76-3.64 160.4-4.6Q161.23-3.29 162.05-1.56L162.05-1.56 158.15-0.26 162.79-0.26 162.79-5.16 155.38-5.16 155.38-7.11 162.79-7.11 162.79-9.58 158.15-9.58 158.15-10.19 155.98-9.49Q155.33-10.71 154.86-11.36L154.86-11.36Q154.51-11.75 154.51-11.79L154.51-11.79Q154.55-11.79 154.64-11.71L154.64-11.71Q160.88-13.57 165.13-17.73L165.13-17.73 146.71-17.73 148.7-16.95Q147.83-15.65 147.83-15.39L147.83-15.39Q147.83-15.3 147.88-15.3L147.88-15.3Q148.09-15.3 148.87-16L148.87-16Q153.16-13.87 155.16-12.4L155.16-12.4 153.64-9.84 151.82-11.27 152.73-10.62 152.73-9.62 148.83-9.62 148.83-7.2 155.12-7.2 155.12-5.25 148.83-5.25 148.83-0.61 148.53-0.56Q149.52-2.77 150.17-4.81L150.17-4.81 153.9-3.77 152.6-1 155.25-1.26 155.29 0.87Q151.13 1.39 136.73 2.9ZM144.06-1.6L140.2-0.43Q139.94-1.6 139.55-2.62 139.16-3.64 139.12-3.77L139.12-3.77 142.5-4.51Q143.32-3.25 143.67-2.43 144.02-1.6 144.06-1.6L144.06-1.6Z" transform="translate(-1.9100000858306885, 36.810001373291016)"></path></g> <!----> <!----> <!----> <!----> <!----> <!----> <!----></g></g> <g data-gra="path-slogan" fill-rule="" class="tp-slogan iconsvg-slogansvg" fill="#fdc142" transform="translate(5,46.58000183105469)"><rect x="0" height="1" y="3.9750003814697266" width="13.899169921875"></rect> <rect height="1" y="3.9750003814697266" width="13.899169921875" x="150.5908203125"></rect> <g transform="translate(16.899169921875,0)"><g transform="scale(1)"><path d="M7.17-6.09L7.17-6.09L6.09-6.09Q6-7.73 3.94-7.83L3.94-7.83Q2.02-7.78 2.02-6.33L2.02-6.33Q2.02-5.39 3.05-5.25L3.05-5.25L5.48-4.69Q7.41-4.22 7.41-2.34L7.41-2.34Q7.36 0.05 4.03 0.14L4.03 0.14Q2.20 0.14 1.45-0.61L1.45-0.61Q0.52-1.31 0.56-2.77L0.56-2.77L1.69-2.77Q1.73-0.80 4.03-0.75L4.03-0.75Q6.28-0.80 6.33-2.20L6.33-2.20Q6.52-3.38 4.45-3.75L4.45-3.75L2.67-4.13Q0.84-4.64 0.84-6.19L0.84-6.19Q0.98-8.72 3.84-8.81L3.84-8.81Q7.08-8.81 7.17-6.09ZM10.03-5.06L14.53-5.06L14.53-8.58L15.70-8.58L15.70 0L14.53 0L14.53-3.98L10.03-3.98L10.03 0L8.86 0L8.86-8.58L10.03-8.58L10.03-5.06ZM18.80-1.03L23.95-1.03L23.95 0L17.63 0L17.63-8.58L23.86-8.58L23.86-7.59L18.80-7.59L18.80-4.92L23.48-4.92L23.48-3.89L18.80-3.89L18.80-1.03ZM26.86-8.58L31.17-1.64L31.17-8.58L32.30-8.58L32.30 0L30.98 0L26.63-6.94L26.58-6.94L26.58 0L25.45 0L25.45-8.58L26.86-8.58ZM41.02-8.58L37.78-3.47L37.78 0L36.61 0L36.61-3.47L33.38-8.58L34.73-8.58L37.17-4.45L39.66-8.58L41.02-8.58ZM47.72 0L46.88-2.48L43.41-2.48L42.52 0L41.34 0L44.58-8.58L45.89-8.58L48.98 0L47.72 0ZM45.14-7.31L43.78-3.52L46.45-3.52L45.19-7.31L45.14-7.31ZM51.42-8.58L55.73-1.64L55.73-8.58L56.86-8.58L56.86 0L55.55 0L51.19-6.94L51.14-6.94L51.14 0L50.02 0L50.02-8.58L51.42-8.58ZM65.06-3.61L62.44-3.61L62.44-4.59L66.19-4.59L66.19 0L65.44 0L65.16-1.08Q64.17 0.09 62.34 0.14L62.34 0.14Q60.61 0.14 59.67-0.75L59.67-0.75Q58.27-2.06 58.31-4.36L58.31-4.36Q58.64-8.63 62.39-8.81L62.39-8.81Q65.58-8.63 66.05-6L66.05-6L64.92-6Q64.45-7.78 62.34-7.83L62.34-7.83Q59.67-7.64 59.53-4.31L59.53-4.31Q59.53-0.75 62.39-0.75L62.39-0.75Q63.42-0.75 64.17-1.31L64.17-1.31Q65.11-2.06 65.06-3.61L65.06-3.61ZM72.14-1.03L77.44-1.03L77.44 0L70.69 0L70.69-0.94L75.94-7.59L71.06-7.59L71.06-8.58L77.44-8.58L77.44-7.59L72.14-1.03ZM79.73-5.06L84.23-5.06L84.23-8.58L85.41-8.58L85.41 0L84.23 0L84.23-3.98L79.73-3.98L79.73 0L78.56 0L78.56-8.58L79.73-8.58L79.73-5.06ZM88.50-1.03L93.66-1.03L93.66 0L87.33 0L87.33-8.58L93.56-8.58L93.56-7.59L88.50-7.59L88.50-4.92L93.19-4.92L93.19-3.89L88.50-3.89L88.50-1.03ZM96.56-8.58L100.88-1.64L100.88-8.58L102-8.58L102 0L100.69 0L96.33-6.94L96.28-6.94L96.28 0L95.16 0L95.16-8.58L96.56-8.58ZM110.20-3.61L107.58-3.61L107.58-4.59L111.33-4.59L111.33 0L110.58 0L110.30-1.08Q109.31 0.09 107.48 0.14L107.48 0.14Q105.75 0.14 104.81-0.75L104.81-0.75Q103.41-2.06 103.45-4.36L103.45-4.36Q103.78-8.63 107.53-8.81L107.53-8.81Q110.72-8.63 111.19-6L111.19-6L110.06-6Q109.59-7.78 107.48-7.83L107.48-7.83Q104.81-7.64 104.67-4.31L104.67-4.31Q104.67-0.75 107.53-0.75L107.53-0.75Q108.56-0.75 109.31-1.31L109.31-1.31Q110.25-2.06 110.20-3.61L110.20-3.61ZM119.86-8.58L116.95-4.41L120 0L118.55 0L116.20-3.52L113.86 0L112.45 0L115.55-4.41L112.64-8.58L114.09-8.58L116.25-5.30L118.45-8.58L119.86-8.58ZM121.27-8.58L122.44-8.58L122.44 0L121.27 0L121.27-8.58ZM125.81-8.58L130.13-1.64L130.13-8.58L131.25-8.58L131.25 0L129.94 0L125.58-6.94L125.53-6.94L125.53 0L124.41 0L124.41-8.58L125.81-8.58Z" transform="translate(-0.5602678571428572, 8.8125)"></path></g></g></g></g></g><defs v-gra="od"></defs></svg>